:FULLY-SPECIFIED
:FORCE-ALL-JOINTS-BE-3DOF
:DEGREES
612
root -4.6424 15.7519 -40.5626 360.095 -72.5708 365.246
lfemur -8.71911 12.0296 -15.268
ltibia 43.8638 0 0
lfoot -19.8808 26.3685 0
ltoes -23.1032 0 0
rfemur -46.9002 -28.4033 15.9609
rtibia 76.6221 0 0
rfoot -9.76136 -11.1637 0
rtoes 0.516435 0 0
lowerback 13.2148 4.97489 -5.64522
upperback -1.54911 5.6843 -0.339974
thorax -9.63783 2.99912 1.57326
lowerneck 3.00194 -11.0143 -11.7331
upperneck -2.71029 -14.9892 11.3243
head 0.479499 -7.57154 5.09147
lclavicle 2.8783e-14 7.92999e-15 0
lhumerus -68.3642 -25.5646 105.706
lradius 102.726 0 0
lwrist 51.1903 0 0
lhand 15.2407 58.9173 0
lfingers 7.12502 0 0
lthumb 39.9568 83.4077 0
rclavicle 2.8783e-14 7.92999e-15 0
rhumerus 28.7021 44.963 -39.3407
rradius 122.918 0 0
rwrist -33.0843 0 0
rhand -0.65014 -30.8156 0
rfingers 7.12502 0 0
rthumb 24.9626 -59.1083 0
613
root -4.67153 15.747 -40.5397 360.389 -72.5878 364.95
lfemur -8.90813 12.0169 -15.2857
ltibia 44.0543 0 0
lfoot -19.8397 26.3127 0
ltoes -23.0296 0 0
rfemur -46.774 -28.3985 16.0157
rtibia 76.5458 0 0
rfoot -9.80678 -11.2572 0
rtoes 0.462884 0 0
lowerback 13.2229 4.9697 -5.59682
upperback -1.55222 5.68743 -0.324731
thorax -9.64335 2.99813 1.56155
lowerneck 2.98771 -10.9995 -11.722
upperneck -2.71011 -14.9681 11.312
head 0.478674 -7.56066 5.08727
lclavicle 2.8685e-14 7.93388e-15 0
lhumerus -68.1691 -25.6068 105.673
lradius 102.765 0 0
lwrist 50.9307 0 0
lhand 15.415 58.8491 0
lfingers 7.12502 0 0
lthumb 40.1123 83.2347 0
rclavicle 2.8685e-14 7.93388e-15 0
rhumerus 28.7881 44.8857 -39.3552
rradius 122.842 0 0
rwrist -33.2878 0 0
rhand -0.742081 -30.9222 0
rfingers 7.12502 0 0
rthumb 24.874 -59.218 0
614
root -4.70066 15.7421 -40.5167 360.639 -72.605 364.698
lfemur -9.06948 12.0038 -15.2969
ltibia 44.2295 0 0
lfoot -19.8033 26.2625 0
ltoes -22.9577 0 0
rfemur -46.6691 -28.3871 16.0597
rtibia 76.4734 0 0
rfoot -9.84884 -11.3294 0
rtoes 0.411481 0 0
lowerback 13.2305 4.96307 -5.55258
upperback -1.5544 5.68785 -0.309784
thorax -9.64758 2.99605 1.5525
lowerneck 2.97273 -10.9847 -11.7119
upperneck -2.7072 -14.9469 11.2978
head 0.47863 -7.54974 5.08247
lclavicle 2.85774e-14 7.94455e-15 0
lhumerus -67.9921 -25.6436 105.642
lradius 102.799 0 0
lwrist 50.7033 0 0
lhand 15.5392 58.7498 0
lfingers 7.12502 0 0
lthumb 40.2207 83.0432 0
rclavicle 2.85774e-14 7.94455e-15 0
rhumerus 28.8609 44.79 -39.374
rradius 122.704 0 0
rwrist -33.4365 0 0
rhand -0.844717 -31.0151 0
rfingers 7.12502 0 0
rthumb 24.775 -59.315 0
615
root -4.72978 15.7372 -40.4937 360.854 -72.6231 364.477
lfemur -9.21057 11.99 -15.3023
ltibia 44.3965 0 0
lfoot -19.77 26.216 0
ltoes -22.8848 0 0
rfemur -46.5805 -28.369 16.0949
rtibia 76.4022 0 0
rfoot -9.88921 -11.384 0
rtoes 0.360296 0 0
lowerback 13.2378 4.95486 -5.51068
upperback -1.55578 5.68576 -0.294592
thorax -9.65075 2.9929 1.54561
lowerneck 2.9565 -10.9693 -11.7024
upperneck -2.70165 -14.925 11.2814
head 0.479315 -7.53841 5.07694
lclavicle 2.84569e-14 7.96193e-15 0
lhumerus -67.8258 -25.6768 105.612
lradius 102.83 0 0
lwrist 50.4982 0 0
lhand 15.6208 58.6178 0
lfingers 7.12502 0 0
lthumb 40.2889 82.8277 0
rclavicle 2.84569e-14 7.96193e-15 0
rhumerus 28.9238 44.6736 -39.3974
rradius 122.503 0 0
rwrist -33.5391 0 0
rhand -0.960946 -31.0984 0
rfingers 7.12502 0 0
rthumb 24.663 -59.4034 0
616
root -4.75891 15.7323 -40.4707 361.048 -72.6425 364.277
lfemur -9.33879 11.9749 -15.3028
ltibia 44.5624 0 0
lfoot -19.7382 26.1709 0
ltoes -22.8083 0 0
rfemur -46.5032 -28.3444 16.1236
rtibia 76.3294 0 0
rfoot -9.92959 -11.425 0
rtoes 0.307399 0 0
lowerback 13.2452 4.94493 -5.46931
upperback -1.55648 5.68135 -0.278616
thorax -9.65309 2.98866 1.54041
lowerneck 2.93856 -10.9529 -11.693
upperneck -2.69352 -14.9015 11.2624
head 0.480677 -7.52627 5.07055
lclavicle 2.83205e-14 7.98597e-15 0
lhumerus -67.6631 -25.708 105.583
lradius 102.859 0 0
lwrist 50.3054 0 0
lhand 15.6673 58.4517 0
lfingers 7.12502 0 0
lthumb 40.3237 82.5826 0
rclavicle 2.83205e-14 7.98597e-15 0
rhumerus 28.9803 44.5345 -39.4258
rradius 122.237 0 0
rwrist -33.6043 0 0
rhand -1.09366 -31.1762 0
rfingers 7.12502 0 0
rthumb 24.5351 -59.4876 0
617
root -4.78804 15.7274 -40.4477 361.232 -72.6639 364.085
lfemur -9.46154 11.9582 -15.2993
ltibia 44.7344 0 0
lfoot -19.7064 26.1252 0
ltoes -22.7256 0 0
rfemur -46.4322 -28.3132 16.1482
rtibia 76.2521 0 0
rfoot -9.97165 -11.4563 0
rtoes 0.25086 0 0
lowerback 13.253 4.93314 -5.42668
upperback -1.55666 5.67481 -0.261314
thorax -9.65482 2.98333 1.53641
lowerneck 2.91844 -10.935 -11.6834
upperneck -2.68288 -14.8758 11.2404
head 0.482667 -7.51296 5.06318
lclavicle 2.8165e-14 8.0166e-15 0
lhumerus -67.4964 -25.7387 105.552
lradius 102.888 0 0
lwrist 50.115 0 0
lhand 15.6864 58.25 0
lfingers 7.12502 0 0
lthumb 40.3318 82.3025 0
rclavicle 2.8165e-14 8.0166e-15 0
rhumerus 29.0337 44.3705 -39.4597
rradius 121.905 0 0
rwrist -33.6407 0 0
rhand -1.24576 -31.2528 0
rfingers 7.12502 0 0
rthumb 24.3885 -59.5717 0
618
root -4.81716 15.7225 -40.4247 361.417 -72.6879 363.89
lfemur -9.58621 11.9395 -15.2924
ltibia 44.9195 0 0
lfoot -19.673 26.0767 0
ltoes -22.634 0 0
rfemur -46.3624 -28.2754 16.1707
rtibia 76.1677 0 0
rfoot -10.0171 -11.4818 0
rtoes 0.188747 0 0
lowerback 13.2614 4.91935 -5.38096
upperback -1.55644 5.66631 -0.242147
thorax -9.65619 2.97692 1.53311
lowerneck 2.89566 -10.9149 -11.6731
upperneck -2.66982 -14.8471 11.215
head 0.485231 -7.49809 5.0547
lclavicle 2.79872e-14 8.05375e-15 0
lhumerus -67.3186 -25.7706 105.52
lradius 102.918 0 0
lwrist 49.9168 0 0
lhand 15.6854 58.0113 0
lfingers 7.12502 0 0
lthumb 40.32 81.9819 0
rclavicle 2.79872e-14 8.05375e-15 0
rhumerus 29.0874 44.1793 -39.4993
rradius 121.508 0 0
rwrist -33.6572 0 0
rhand -1.42015 -31.3321 0
rfingers 7.12502 0 0
rthumb 24.2205 -59.6599 0
619
root -4.84629 15.7176 -40.4018 361.615 -72.715 363.68
lfemur -9.72021 11.9182 -15.283
ltibia 45.1247 0 0
lfoot -19.6363 26.0233 0
ltoes -22.5311 0 0
rfemur -46.2889 -28.2311 16.1935
rtibia 76.0733 0 0
rfoot -10.0675 -11.5053 0
rtoes 0.119129 0 0
lowerback 13.2708 4.90343 -5.33034
upperback -1.55596 5.65605 -0.220575
thorax -9.65742 2.9694 1.53004
lowerneck 2.86974 -10.8923 -11.6617
upperneck -2.65439 -14.8146 11.1859
head 0.488318 -7.4813 5.04497
lclavicle 2.77841e-14 8.09738e-15 0
lhumerus -67.1222 -25.8054 105.483
lradius 102.951 0 0
lwrist 49.7009 0 0
lhand 15.6721 57.7341 0
lfingers 7.12502 0 0
lthumb 40.2952 81.6153 0
rclavicle 2.77841e-14 8.09738e-15 0
rhumerus 29.1448 43.959 -39.545
rradius 121.044 0 0
rwrist -33.6623 0 0
rhand -1.6197 -31.4183 0
rfingers 7.12502 0 0
rthumb 24.0282 -59.7564 0
620
root -4.87542 15.7127 -40.3788 361.837 -72.7459 363.444
lfemur -9.87093 11.894 -15.272
ltibia 45.3572 0 0
lfoot -19.595 25.963 0
ltoes -22.4141 0 0
rfemur -46.2065 -28.1804 16.2187
rtibia 75.9661 0 0
rfoot -10.1247 -11.5307 0
rtoes 0.040078 0 0
lowerback 13.2814 4.88523 -5.27303
upperback -1.55536 5.64422 -0.196056
thorax -9.65874 2.96079 1.52671
lowerneck 2.84022 -10.8666 -11.6488
upperneck -2.63669 -14.7778 11.1527
head 0.491877 -7.46219 5.03386
lclavicle 2.75525e-14 8.14742e-15 0
lhumerus -66.8999 -25.8446 105.442
lradius 102.987 0 0
lwrist 49.4573 0 0
lhand 15.6539 57.4168 0
lfingers 7.12502 0 0
lthumb 40.264 81.1971 0
rclavicle 2.75525e-14 8.14742e-15 0
rhumerus 29.2093 43.7072 -39.5973
rradius 120.513 0 0
rwrist -33.6648 0 0
rhand -1.84734 -31.5155 0
rfingers 7.12502 0 0
rthumb 23.8089 -59.8653 0
